<svg width="247" height="48" viewBox="0 0 247 48" fill="none" xmlns="http://www.w3.org/2000/svg">
  <rect width="48" height="48" rx="24" fill="#2D2D71"/>
  <path d="M24 10L36 18.2V31.8H28.9V22.2H19.1V31.8H12V18.2L24 10Z" fill="white"/>
  <path d="M16.2 24.4C16.2 19.761 19.961 16 24.6 16H33.1V21H24.9C22.359 21 20.3 23.059 20.3 25.6C20.3 28.141 22.359 30.2 24.9 30.2H29.1V25.6H24.4V22.2H33.2V35H24.6C19.961 35 16.2 31.239 16.2 26.6V24.4Z" fill="white"/>
  <path d="M36.6 29.1L40.5 25.2V33H32.7L36.6 29.1Z" fill="#AEB7FF"/>
  <path d="M71.6416 10.4219H84.6797C93.0085 10.4219 98.6797 15.8671 98.6797 23.9922C98.6797 32.1173 93.0085 37.7031 84.6797 37.7031H71.6416V10.4219ZM84.1484 31.6562C88.5625 31.6562 91.6797 28.5741 91.6797 23.9922C91.6797 19.4103 88.5625 16.4688 84.1484 16.4688H78.4453V31.6562H84.1484ZM102.26 10.4219H122.516V16.2812H109V21.0938H120.883V26.7422H109V31.8438H122.715V37.7031H102.26V10.4219ZM126.107 10.4219H139.145C147.473 10.4219 153.145 15.8671 153.145 23.9922C153.145 32.1173 147.473 37.7031 139.145 37.7031H126.107V10.4219ZM138.613 31.6562C143.027 31.6562 146.145 28.5741 146.145 23.9922C146.145 19.4103 143.027 16.4688 138.613 16.4688H132.91V31.6562H138.613ZM156.725 10.4219H176.98V16.2812H163.465V21.0938H175.348V26.7422H163.465V31.8438H177.18V37.7031H156.725V10.4219ZM178.975 10.4219H186.373L192.846 29.4297L199.318 10.4219H206.453L196.627 37.7031H188.801L178.975 10.4219ZM208.232 10.4219H228.488V16.2812H214.973V21.0938H226.855V26.7422H214.973V31.8438H228.688V37.7031H208.232V10.4219Z" fill="#181B23"/>
</svg>
